# xmcd CD database file
# Copyright (C) 1997 Ti Kan
#
# Track frame offsets:
#  150
#  12497
#  24447
#  35522
#  46497
#  57610
#  68260
#  79310
#  88372
#  98272
#  107072
#  116835
#  125902
#  135722
#  145635
#  156610
#  167110
#  178447
#  188807
#  200045
#  209247
#  219372
#  233659
#  245820
#  258642
#
# Disc length: 3584 seconds
#
# Revision: 1
# Processed by: cddbd v1.4b41PL1 Copyright (c) Steve Scherf et al.
# Submitted via: CDWizzard Release:4.32
#
DISCID=850dfe19
DTITLE=Buck Owens - Buck Owens: Legendary Country Singer
DYEAR=1900
DGENRE=
TTITLE0=Under Your Spell Again
TTITLE1=Foolin' Around
TTITLE2=Above and Beyond
TTITLE3=Mental Cruelty
TTITLE4=Excuse Me (I Think I've Got Heartache)
TTITLE5=Act Naturally
TTITLE6=Together Again
TTITLE7=Love's Gonna Live Here
TTITLE8=A-11
TTITLE9=Sam's Place
TTITLE10=I Don't Care (Just As Long As You Love Me)
TTITLE11=Buckaroo
TTITLE12=Before You Go
TTITLE13=I've Got a Tiger by the Tail
TTITLE14=My Heart Skips a Beat
TTITLE15=Waitin' in Your Welfare Line
TTITLE16=Cryin' Time
TTITLE17=Think of Me
TTITLE18=Open Up Your Heart
TTITLE19=It Takes People Like You (To Make People Like Me)
TTITLE20=How Long Will My Baby Be Gone?
TTITLE21=Big in Vegas
TTITLE22=Made in Japan
TTITLE23=Streets of Bakersfield
TTITLE24=Hot Dog
EXTD=
EXTT0=Buck Owens
EXTT1=Buck Owens
EXTT2=Buck Owens
EXTT3=Buck Owens and Rose Maddox
EXTT4=Buck Owens
EXTT5=Buck Owens
EXTT6=Buck Owens
EXTT7=Buck Owens
EXTT8=Buck Owens and the Buckaroos
EXTT9=Buck Owens and the Buckaroos
EXTT10=Buck Owens
EXTT11=Buck Owens and the Buckaroos
EXTT12=Buck Owens
EXTT13=Buck Owens
EXTT14=Buck Owens
EXTT15=Buck Owens
EXTT16=Buck Owens
EXTT17=Buck Owens and the Buckaroos
EXTT18=Buck Owens and the Buckaroos
EXTT19=Buck Owens and the Buckaroos
EXTT20=Buck Owens and the Buckaroos
EXTT21=Buck Owens and the Buckaroos
EXTT22=Buck Owens and the Buckaroos
EXTT23=Dwight Yoakum and Buck Owens
EXTT24=Corky Jones (Buck Owens)
PLAYORDER=
